<?xml version="1.0" encoding="utf-8"?>
<!-- Generator: Adobe Illustrator 16.0.0, SVG Export Plug-In . SVG Version: 6.00 Build 0)  -->
<!DOCTYPE svg PUBLIC "-//W3C//DTD SVG 1.1//EN" "http://www.w3.org/Graphics/SVG/1.1/DTD/svg11.dtd">
<svg version="1.1" id="Calque_1" xmlns="http://www.w3.org/2000/svg" xmlns:xlink="http://www.w3.org/1999/xlink" x="0px" y="0px"
	 width="128px" height="128px" viewBox="0 0 128 128" enable-background="new 0 0 128 128" xml:space="preserve">
<g>
	<path fill="none" stroke="#FF0000" stroke-width="5" stroke-linecap="round" stroke-linejoin="round" stroke-miterlimit="10" d="
		M56.823,16.377c-24.564,0-44.475,16.155-44.475,36.08c0,10.56,5.594,20.059,14.508,26.66l-0.002-0.004v20.404L39.918,85.83
		c5.211,1.742,10.919,2.707,16.905,2.707c24.561,0,44.473-16.154,44.473-36.08S81.384,16.377,56.823,16.377z"/>
	<g>
		<path fill="none" stroke="#FF0000" stroke-width="5" stroke-linecap="round" stroke-linejoin="round" stroke-miterlimit="10" d="
			M112.05,58.871c3.756,4.636,3.946,7.366,3.946,13.245c0,8.829-4.9,16.771-12.708,22.287l0.003-0.003v17.057L91.85,100.014
			c-4.565,1.457-9.564,2.264-14.807,2.264c-6.725,0-13.049-1.321-18.568-3.643"/>
	</g>
</g>
<circle fill="#FF0000" cx="37.724" cy="53.463" r="5.407"/>
<circle fill="#FF0000" cx="56.823" cy="53.463" r="5.407"/>
<circle fill="#FF0000" cx="75.92" cy="53.463" r="5.407"/>
</svg>
