<?xml version="1.0" encoding="utf-8"?>
<!-- Generator: Adobe Illustrator 16.0.0, SVG Export Plug-In . SVG Version: 6.00 Build 0)  -->
<!DOCTYPE svg PUBLIC "-//W3C//DTD SVG 1.1//EN" "http://www.w3.org/Graphics/SVG/1.1/DTD/svg11.dtd">
<svg version="1.1" id="Calque_1" xmlns="http://www.w3.org/2000/svg" xmlns:xlink="http://www.w3.org/1999/xlink" x="0px" y="0px"
	 width="128px" height="128px" viewBox="0 0 128 128" enable-background="new 0 0 128 128" xml:space="preserve">
<g id="Calque_1_1_" display="none">
</g>
<path fill="none" stroke="#FF0000" stroke-width="3" stroke-miterlimit="10" d="M126.25,113.021c0,1.693-1.373,3.066-3.066,3.066
	H4.817c-1.694,0-3.067-1.373-3.067-3.066v-7.054c0-1.694,1.373-3.067,3.067-3.067h118.367c1.693,0,3.066,1.373,3.066,3.067V113.021z
	"/>
<path fill="none" stroke="#FF0000" stroke-width="2" stroke-miterlimit="10" d="M78.164,38c0,1.693-1.373,3.066-3.066,3.066H53.936
	c-1.694,0-3.067-1.373-3.067-3.066v-2.985c0-1.694,1.373-3.067,3.067-3.067h21.162c1.693,0,3.066,1.373,3.066,3.067V38z"/>
<path fill="none" stroke="#FF0000" stroke-width="2" stroke-miterlimit="10" d="M78.164,51.556c0,1.693-1.373,3.066-3.066,3.066
	H53.936c-1.694,0-3.067-1.373-3.067-3.066V48.57c0-1.694,1.373-3.067,3.067-3.067h21.162c1.693,0,3.066,1.373,3.066,3.067V51.556z"
	/>
<path fill="none" stroke="#FF0000" stroke-width="2" stroke-miterlimit="10" d="M78.164,65.111c0,1.693-1.373,3.066-3.066,3.066
	H53.936c-1.694,0-3.067-1.373-3.067-3.066v-2.986c0-1.694,1.373-3.067,3.067-3.067h21.162c1.693,0,3.066,1.373,3.066,3.067V65.111z"
	/>
<path fill="none" stroke="#FF0000" stroke-width="2" stroke-miterlimit="10" d="M78.164,78.666c0,1.693-1.373,3.066-3.066,3.066
	H53.936c-1.694,0-3.067-1.373-3.067-3.066v-2.985c0-1.694,1.373-3.067,3.067-3.067h21.162c1.693,0,3.066,1.373,3.066,3.067V78.666z"
	/>
<path fill="none" stroke="#FF0000" stroke-width="2" stroke-miterlimit="10" d="M78.164,92.221c0,1.693-1.373,3.066-3.066,3.066
	H53.936c-1.694,0-3.067-1.373-3.067-3.066v-2.984c0-1.695,1.373-3.068,3.067-3.068h21.162c1.693,0,3.066,1.373,3.066,3.068V92.221z"
	/>
<path fill="none" stroke="#FF0000" stroke-width="2" stroke-miterlimit="10" d="M116.959,51.556c0,1.693-1.373,3.066-3.066,3.066
	H92.73c-1.693,0-3.066-1.373-3.066-3.066V48.57c0-1.694,1.373-3.067,3.066-3.067h21.162c1.693,0,3.066,1.373,3.066,3.067V51.556z"/>
<path fill="none" stroke="#FF0000" stroke-width="2" stroke-miterlimit="10" d="M116.959,65.111c0,1.693-1.373,3.066-3.066,3.066
	H92.73c-1.693,0-3.066-1.373-3.066-3.066v-2.986c0-1.694,1.373-3.067,3.066-3.067h21.162c1.693,0,3.066,1.373,3.066,3.067V65.111z"
	/>
<path fill="none" stroke="#FF0000" stroke-width="2" stroke-miterlimit="10" d="M116.959,78.666c0,1.693-1.373,3.066-3.066,3.066
	H92.73c-1.693,0-3.066-1.373-3.066-3.066v-2.985c0-1.694,1.373-3.067,3.066-3.067h21.162c1.693,0,3.066,1.373,3.066,3.067V78.666z"
	/>
<path fill="none" stroke="#FF0000" stroke-width="2" stroke-miterlimit="10" d="M116.959,92.221c0,1.693-1.373,3.066-3.066,3.066
	H92.73c-1.693,0-3.066-1.373-3.066-3.066v-2.984c0-1.695,1.373-3.068,3.066-3.068h21.162c1.693,0,3.066,1.373,3.066,3.068V92.221z"
	/>
<path fill="none" stroke="#FF0000" stroke-width="2" stroke-miterlimit="10" d="M43.257,65.111c0,1.693-1.373,3.066-3.066,3.066
	H19.029c-1.693,0-3.066-1.373-3.066-3.066v-2.986c0-1.694,1.373-3.067,3.066-3.067h21.162c1.693,0,3.066,1.373,3.066,3.067V65.111z"
	/>
<path fill="none" stroke="#FF0000" stroke-width="2" stroke-miterlimit="10" d="M43.257,78.666c0,1.693-1.373,3.066-3.066,3.066
	H19.029c-1.693,0-3.066-1.373-3.066-3.066v-2.985c0-1.694,1.373-3.067,3.066-3.067h21.162c1.693,0,3.066,1.373,3.066,3.067V78.666z"
	/>
<path fill="none" stroke="#FF0000" stroke-width="2" stroke-miterlimit="10" d="M43.257,92.221c0,1.693-1.373,3.066-3.066,3.066
	H19.029c-1.693,0-3.066-1.373-3.066-3.066v-2.984c0-1.695,1.373-3.068,3.066-3.068h21.162c1.693,0,3.066,1.373,3.066,3.068V92.221z"
	/>
<g>
	<path fill="#FF0000" d="M67.891,11.667c0-1.863-1.511-3.374-3.374-3.374s-3.374,1.51-3.374,3.374v17.481h6.748V11.667z"/>
</g>
<g>
	<path fill="#FF0000" d="M106.686,11.667c0-1.863-1.511-3.374-3.373-3.374c-1.863,0-3.374,1.51-3.374,3.374v29.441h6.747V11.667z"/>
</g>
<g>
	<path fill="#FF0000" d="M32.983,11.667c0-1.863-1.51-3.374-3.374-3.374s-3.374,1.51-3.374,3.374v42.956h6.747V11.667z"/>
</g>
</svg>
