<?xml version="1.0" encoding="utf-8"?>
<!-- Generator: Adobe Illustrator 16.0.0, SVG Export Plug-In . SVG Version: 6.00 Build 0)  -->
<!DOCTYPE svg PUBLIC "-//W3C//DTD SVG 1.1//EN" "http://www.w3.org/Graphics/SVG/1.1/DTD/svg11.dtd">
<svg version="1.1" id="Calque_2" xmlns="http://www.w3.org/2000/svg" xmlns:xlink="http://www.w3.org/1999/xlink" x="0px" y="0px"
	 width="128px" height="128px" viewBox="0 0 128 128" enable-background="new 0 0 128 128" xml:space="preserve">
<path fill="none" stroke="#ED1F24" stroke-width="5.1572" stroke-linecap="round" stroke-linejoin="round" stroke-miterlimit="10" d="
	M124.817,29.483L79.144,3.869L9.874,43.811c0,0-4.888,1.18-4.888,5.898s0,4.719,0,4.719s-1.179,4.045,4.551,7.249
	c5.729,3.201,46.516,25.615,46.516,25.615l68.192-39.108"/>
<path fill="#ED1F24" stroke="#ED1F24" stroke-width="5.1572" stroke-linecap="round" stroke-miterlimit="10" d="M124.477,30.789
	c0,0-58.718,32.839-63.873,36.11c-4.107,2.612-7.416,0-7.416,0l-42.3-23.674L79.144,3.869l43.786,24.555
	C122.93,28.424,125.813,29.703,124.477,30.789z"/>
<path fill="none" stroke="#ED1F24" stroke-width="5.1572" stroke-linecap="round" stroke-linejoin="round" stroke-miterlimit="10" d="
	M124.492,47.949"/>
<path fill="none" stroke="#ED1F24" stroke-width="5.1572" stroke-linecap="round" stroke-linejoin="round" stroke-miterlimit="10" d="
	M9.548,62.277c0,0-4.887,1.18-4.887,5.898c0,4.719,0,4.719,0,4.719s-1.18,4.046,4.552,7.25c5.728,3.2,46.517,25.614,46.517,25.614
	l68.19-39.108"/>
<path fill="none" stroke="#ED1F24" stroke-width="5.1572" stroke-linecap="round" stroke-linejoin="round" stroke-miterlimit="10" d="
	M124.492,66.668"/>
<path fill="none" stroke="#ED1F24" stroke-width="5.1572" stroke-linecap="round" stroke-linejoin="round" stroke-miterlimit="10" d="
	M9.548,80.995c0,0-4.887,1.18-4.887,5.898s0,4.719,0,4.719s-1.18,4.045,4.552,7.249c5.728,3.201,46.517,25.614,46.517,25.614
	l68.19-39.106"/>
<path fill="none" d="M280.667,52.833l-50.667,38c0,0-3.167,3.166-7.667,1S180.667,75.5,180.667,75.5S175.5,72.207,175,76.854"/>
</svg>
