<?xml version="1.0" encoding="utf-8"?>
<!-- Generator: Adobe Illustrator 16.0.0, SVG Export Plug-In . SVG Version: 6.00 Build 0)  -->
<!DOCTYPE svg PUBLIC "-//W3C//DTD SVG 1.1//EN" "http://www.w3.org/Graphics/SVG/1.1/DTD/svg11.dtd">
<svg version="1.1" xmlns="http://www.w3.org/2000/svg" xmlns:xlink="http://www.w3.org/1999/xlink" x="0px" y="0px" width="128px"
	 height="128px" viewBox="0 0 128 128" enable-background="new 0 0 128 128" xml:space="preserve">
<g id="svg42" xmlns:dc="http://purl.org/dc/elements/1.1/" xmlns:cc="http://creativecommons.org/ns#" xmlns:rdf="http://www.w3.org/1999/02/22-rdf-syntax-ns#" xmlns:svg="http://www.w3.org/2000/svg" xmlns:sodipodi="http://sodipodi.sourceforge.net/DTD/sodipodi-0.dtd" xmlns:inkscape="http://www.inkscape.org/namespaces/inkscape" sodipodi:docname="iconPlanning.svg" inkscape:version="1.0 (4035a4fb49, 2020-05-01)" display="none">
	
		<sodipodi:namedview  pagecolor="#ffffff" bordercolor="#666666" borderopacity="1" objecttolerance="10" gridtolerance="10" guidetolerance="10" showgrid="false" inkscape:cx="62.793161" inkscape:cy="86.204818" inkscape:zoom="4.0603397" id="namedview44" inkscape:window-width="1920" inkscape:window-height="1017" inkscape:current-layer="svg42" inkscape:window-y="-8" inkscape:window-x="-8" inkscape:window-maximized="1" inkscape:pageopacity="0" inkscape:pageshadow="2">
		</sodipodi:namedview>
	<g id="Calque_1">
		<g id="Calque_1_2_" display="inline">
			<g id="Calque_1_1_">
			</g>
			
				<line id="line3" fill="none" stroke="#FF0000" stroke-width="11" stroke-miterlimit="10" x1="5.1" y1="35.064" x2="58.226" y2="35.064"/>
			
				<line id="line5" fill="none" stroke="#FF0000" stroke-width="11" stroke-miterlimit="10" x1="58.226" y1="46.698" x2="86.372" y2="46.698"/>
			
				<line id="line7" fill="none" stroke="#FF0000" stroke-width="11" stroke-miterlimit="10" x1="17.83" y1="68.512" x2="45.601" y2="68.512"/>
			
				<line id="line9" fill="none" stroke="#FF0000" stroke-width="11" stroke-miterlimit="10" x1="45.601" y1="81.646" x2="68.682" y2="81.646"/>
			
				<line id="line11" fill="none" stroke="#FF0000" stroke-width="11" stroke-miterlimit="10" x1="67.805" y1="92.5" x2="113.844" y2="92.5"/>
			<path id="path13" fill="none" stroke="#FF0000" stroke-width="5" stroke-miterlimit="10" d="M124.111,105.398
				c0,3.594-2.688,6.509-6.006,6.509H11.022c-3.316,0-6.004-2.915-6.004-6.509V15.383c0-3.594,2.688-6.507,6.004-6.507h107.083
				c3.313,0,6.006,2.914,6.006,6.507V105.398z"/>
		</g>
		<g id="Calque_1_3_" display="inline">
		</g>
		
			<path id="path17" display="inline" fill="none" stroke="#FF0000" stroke-width="5" stroke-linecap="round" stroke-miterlimit="10" d="
			M120.105,121.5H13.022c-3.316,0-6.004-2.915-6.004-6.509V12.5"/>
		
			<line id="line19" display="inline" fill="none" stroke="#FF0000" stroke-width="11" stroke-miterlimit="10" x1="24.572" y1="26.21" x2="103.43" y2="26.21"/>
		
			<line id="line21" display="inline" fill="none" stroke="#FF0000" stroke-width="11" stroke-miterlimit="10" x1="17.501" y1="50.5" x2="65.251" y2="50.5"/>
		
			<line id="line23" display="inline" fill="none" stroke="#FF0000" stroke-width="11" stroke-miterlimit="10" x1="65.251" y1="67" x2="102.045" y2="67"/>
		
			<line id="line25" display="inline" fill="none" stroke="#FF0000" stroke-width="11" stroke-miterlimit="10" x1="33.251" y1="98.473" x2="81.002" y2="98.473"/>
	</g>
	<g id="Calque_2" display="inline">
	</g>
	<path id="path29" display="inline" fill="none" stroke="#FF0000" stroke-width="5" stroke-miterlimit="10" d="M123.589,113.262
		c0,5.955-4.826,10.781-10.781,10.781H14.284c-5.953,0-10.78-4.826-10.78-10.781V14.738c0-5.955,4.827-10.781,10.78-10.781h98.525
		c5.953,0,10.781,4.827,10.781,10.781v80.1L123.589,113.262z"/>
	<rect x="3.504" y="18.339" display="inline" fill="#FF0000" width="42.595" height="15.181"/>
	
		<rect x="45.624" y="66.167" display="inline" fill="none" stroke="#FF0000" stroke-width="4" stroke-miterlimit="10" width="42.357" height="17.005"/>
	<rect x="46.073" y="41.534" display="inline" fill="#FF0000" width="62.427" height="15.751"/>
	
		<rect x="87.981" y="97.306" display="inline" fill="none" stroke="#FF0000" stroke-width="4" stroke-miterlimit="10" width="35.608" height="12"/>
	<path id="path2790_2_" display="inline" fill="none" stroke="#FF0000" stroke-width="4" d="M45.696,18.462l-0.072,65.684"/>
	<path id="path2790-1_1_" display="inline" fill="none" stroke="#FF0000" stroke-width="4" d="M87.981,71.815v37.51"/>
	<rect x="3.504" y="18.339" display="inline" fill="#FF0000" width="42.595" height="15.181"/>
	
		<rect x="45.624" y="66.167" display="inline" fill="none" stroke="#FF0000" stroke-width="4" stroke-miterlimit="10" width="42.357" height="17.005"/>
	<rect x="46.073" y="41.534" display="inline" fill="#FF0000" width="62.427" height="15.751"/>
	
		<rect x="87.981" y="97.306" display="inline" fill="none" stroke="#FF0000" stroke-width="4" stroke-miterlimit="10" width="35.608" height="12"/>
	<path id="path2790_1_" display="inline" fill="none" stroke="#FF0000" stroke-width="4" d="M45.696,18.462l-0.072,65.684"/>
	<path id="path2790-1" display="inline" fill="none" stroke="#FF0000" stroke-width="4" d="M87.981,71.815v37.51"/>
</g>
<g id="Calque_2_1_" display="none">
	
		<rect x="11.624" y="8.653" display="inline" fill="none" stroke="#FF0000" stroke-width="3.2218" stroke-miterlimit="10" width="45.744" height="16.303"/>
	
		<rect x="25.928" y="103.712" display="inline" fill="none" stroke="#FF0000" stroke-width="3.2218" stroke-miterlimit="10" width="45.743" height="16.303"/>
	
		<rect x="41.562" y="71.498" display="inline" fill="#FF0000" stroke="#FF0000" stroke-width="1.3982" stroke-linecap="round" stroke-linejoin="round" stroke-miterlimit="10" width="77.105" height="18.262"/>
	
		<rect x="25.928" y="38.827" display="inline" fill="none" stroke="#FF0000" stroke-width="3.2218" stroke-miterlimit="10" width="67.042" height="16.916"/>
	
		<line display="inline" fill="none" stroke="#FF0000" stroke-width="5" stroke-linecap="round" stroke-miterlimit="10" x1="3.957" y1="4.167" x2="3.957" y2="123.167"/>
</g>
<g id="Calque_2_-_copie">
	
		<rect x="15.291" y="9.057" fill="none" stroke="#FF0000" stroke-width="4.9255" stroke-miterlimit="10" width="69.935" height="24.925"/>
	
		<rect x="31.553" y="94.879" fill="none" stroke="#FF0000" stroke-width="4.9255" stroke-miterlimit="10" width="69.933" height="24.924"/>
	
		<rect x="31.553" y="50.54" fill="#FF0000" stroke="#FF0000" stroke-width="1.9083" stroke-linecap="round" stroke-linejoin="round" stroke-miterlimit="10" width="93.947" height="27.919"/>
	
		<line fill="none" stroke="#FF0000" stroke-width="5" stroke-linecap="round" stroke-miterlimit="10" x1="3.957" y1="4.167" x2="3.957" y2="123.167"/>
</g>
</svg>
